<svg width="326" height="559" viewBox="0 0 326 559" fill="none" xmlns="http://www.w3.org/2000/svg">
<path fill-rule="evenodd" clip-rule="evenodd" d="M137.805 1.585C72.547 11.779 21.962 58.421 5.58598 123.5C1.01698 141.658 -0.805017 173.018 1.83898 188C7.76198 221.56 18.132 250.139 49.014 318C70.547 365.319 105.356 441.62 108.32 448C111.563 454.98 139.843 517.215 149.67 539C153.764 548.075 158.038 556.288 159.168 557.25C161.815 559.506 165.254 559.482 167.325 557.193C168.572 555.815 255.89 364.679 291.216 286C294.056 279.675 296.916 273.825 297.571 273C298.732 271.54 300.343 267.515 300.574 265.5C300.637 264.95 301.161 263.375 301.74 262C308.106 246.863 316.357 222.491 319.851 208.5C328.601 173.467 327.242 140.879 315.638 107.5C310.582 92.954 300.562 74.025 293.142 65C291.107 62.525 288.66 59.268 287.705 57.762C284.797 53.175 268.545 37.482 260.677 31.663C239.852 16.262 213.559 5.427 187.72 1.598C174.672 -0.336 150.145 -0.342001 137.805 1.585ZM186 14.451C206.118 17.803 217.707 21.582 233.88 30.063C282.953 55.798 311.891 105.881 312.31 165.802C312.446 185.256 309.272 200.486 298.303 233C289.428 259.31 293.95 249.108 191.081 474.873C159.627 543.903 162.976 537.284 161.423 533.5C159.996 530.023 68.425 328.543 55.753 301C23.383 230.641 11.728 190.384 13.985 156.727C16.044 126.018 26.225 95.755 41.718 74.286C44.808 70.004 48.273 65.141 49.418 63.481C53.304 57.845 74.077 40.119 82.084 35.606C104.367 23.049 117.453 18.201 139 14.524C149.389 12.751 175.551 12.71 186 14.451ZM157.013 43.131C141.68 47.246 127.996 56.91 113.803 73.647C94.959 95.869 85.103 114.436 78.846 139.5C74.815 155.651 75.981 199.608 81.56 241.75C81.869 244.087 81.757 245.996 81.311 245.992C80.865 245.987 73.775 240.587 65.556 233.992C57.336 227.396 50.297 222 49.914 222C49.192 222 36 242.25 36 243.358C36 243.702 42.251 250.175 49.892 257.742C77.158 284.746 100.402 322.629 118.771 370C131.642 403.192 135.752 418.85 141.082 455C145.132 482.469 144.419 480.348 149.333 479.563C165.79 476.931 182.82 459.984 197.438 431.692C217.996 391.905 239.706 332.741 262.641 254C266.576 240.49 276.887 209.523 281.537 197.251L285.8 186.002L278.778 179.501C274.459 175.502 270.89 173 269.504 173C266.481 173 262.243 177.191 250.701 191.59C213.352 238.188 172.962 258.079 144.315 243.982C133.004 238.416 125.811 228.109 121.465 211.238C117.67 196.509 117.852 195.92 126.811 193.844C160.352 186.074 200.101 160.402 216.374 136C240.117 100.395 235.992 64.066 206.415 48.302C192.543 40.908 172.94 38.856 157.013 43.131ZM184 64.544C187.687 66.411 190.615 69.901 193.201 75.512C196.108 81.818 196.452 100.284 193.817 108.5C185.3 135.055 165.74 156.82 141 167.271C130.553 171.685 119.922 174.568 117.509 173.642C112.279 171.635 120.331 124.044 129.713 101.5C135.854 86.745 148.683 72.609 161.468 66.512C171.225 61.858 177.597 61.302 184 64.544ZM230.698 257.055C231.664 259.072 231.62 261 230.48 266.543C229.111 273.199 210.883 330.083 206.781 340.5C205.698 343.25 202.799 351.125 200.338 358C188.359 391.471 187.672 393.235 179.981 410.25C176.562 417.813 173.421 424 173.001 424C172.58 424 171.039 420.063 169.576 415.25C154.431 365.435 142.809 334.238 127.199 301.5C122.217 291.05 117.835 281.262 117.461 279.75C116.587 276.205 117.921 276.189 128.5 279.619C135.936 282.03 137.381 282.172 149 281.623C171.225 280.572 186.244 275.863 208.568 262.945C225.08 253.39 228.504 252.479 230.698 257.055Z" fill="black"/>
</svg>
