<svg width="666" height="366" viewBox="0 0 666 366" fill="none" xmlns="http://www.w3.org/2000/svg">
<path fill-rule="evenodd" clip-rule="evenodd" d="M0.830924 185.142L1.66185 366L333.336 363.87L665.01 361.74L664.179 180.883L663.348 0.0249864L331.674 2.15483L0 4.28467L0.830924 185.142ZM145.891 24.2986C193.085 46.2192 213.118 99.1255 194.976 153.939C184.751 184.829 109.459 349.665 105.561 349.691C100.841 349.721 21.7714 179.422 12.2509 148.72C-13.8441 64.5687 68.1784 -11.7953 145.891 24.2986ZM81.0885 26.2066C25.1372 42.2785 1.92484 95.5934 23.9743 157.385C30.4499 175.532 103.885 336.014 105.708 336.003C106.369 335.998 108.25 332.686 109.888 328.643C111.526 324.601 128.359 286.878 147.297 244.815C196.701 135.081 200.662 119.861 189.191 83.7894C175.299 40.0961 125.35 13.4907 81.0885 26.2066ZM129.683 44.2213C163.214 61.8792 138.708 114.409 89.5874 130.173C77.9132 133.92 76.6828 136.946 81.8771 149.161C92.3609 173.824 120.051 168.907 150.929 136.898L168.688 118.49L173.804 122.452C178.653 126.206 178.781 126.749 176.257 132.85C174.792 136.391 168.233 156.824 161.68 178.259C136.481 260.689 119.228 296.204 101.295 302.557C94.3062 305.034 94.8468 306.084 90.667 281.856C83.6743 241.313 63.849 200.114 38.6098 173.674L27.9604 162.518L31.4228 156.612C35.7518 149.224 37.2532 149.236 46.4766 156.723C56.0724 164.513 55.9346 164.858 53.5475 139.107C47.5964 74.9457 89.3087 22.9609 129.683 44.2213ZM101.802 56.5583C88.6945 63.5524 76.933 89.3085 77.0318 110.798C77.0863 122.661 90.1074 120.328 106.933 105.442C132.174 83.1114 127.923 42.6195 101.802 56.5583ZM127.867 175.592C110.997 183.895 93.6684 187.135 84.4499 183.708C76.2458 180.659 76.2958 181.293 85.9098 202.453C90.7158 213.034 98.0225 231.787 102.144 244.128C106.265 256.468 110.317 267.3 111.147 268.196C113.607 270.857 146.048 181.482 146.006 172.162C145.985 167.594 142.949 168.169 127.867 175.592ZM240.961 335.249C240.99 341.69 240.139 346.871 239.052 346.878C237.943 346.885 237.064 341.312 237.03 334.066C236.993 326.015 237.703 321.687 238.939 322.438C240.022 323.096 240.932 328.86 240.961 335.249ZM248.811 335.199C248.841 341.64 247.989 346.821 246.902 346.828C245.793 346.835 244.914 341.262 244.88 334.016C244.843 325.964 245.554 321.637 246.79 322.387C247.872 323.045 248.782 328.809 248.811 335.199ZM415.623 332.718L415.68 345.11L408.467 345.426C404.499 345.601 400.079 344.784 398.645 343.612C391.969 338.155 399.349 324.622 407.606 327.176C410.829 328.174 411.674 327.593 411.659 324.393C411.649 322.17 412.524 320.345 413.603 320.339C414.704 320.331 415.591 325.759 415.623 332.718ZM435.082 323.282C432.967 325.851 433.012 326.682 435.354 328.139C437.316 329.36 437.431 329.911 435.727 329.944C434.179 329.971 433.287 332.873 433.31 337.809C433.359 348.538 429.992 347.732 429.068 336.795C428.161 326.064 430.03 320.233 434.387 320.205C437.121 320.188 437.231 320.674 435.082 323.282ZM229.52 335.165C233.087 345.456 232.759 351.126 228.982 344.483C227.922 342.617 225.375 341.1 223.324 341.113C221.273 341.126 218.741 342.676 217.697 344.555C214.784 349.803 212.723 345.923 215.152 339.762C216.333 336.763 218.2 331.812 219.301 328.76C222.107 320.982 225.3 322.983 229.52 335.165ZM341.495 331.08L346.899 339.342L346.892 331.032C346.889 326.461 347.768 322.717 348.848 322.71C349.939 322.703 350.834 327.912 350.864 334.428C350.928 348.351 349.41 348.934 341.819 337.908L336.122 329.635L334.985 338.441C333.897 346.865 333.834 346.717 333.498 335.029C333.084 320.617 334.267 320.033 341.495 331.08ZM573.1 330.557L577.325 339.818L581.203 330.505C586.425 317.97 588.325 318.771 588.058 333.394C587.867 343.913 587.664 344.551 586.608 337.975L585.379 330.336L582.009 337.516C577.76 346.57 575.947 346.551 572.131 337.407L569.076 330.094L568.92 337.427C568.658 349.695 564.842 345.662 564.784 333.055C564.718 318.787 567.368 317.992 573.1 330.557ZM639.321 323.777C639.329 325.39 640.882 326.802 642.77 326.915C646.043 327.109 646.043 327.164 642.775 328.035C640.511 328.64 639.354 330.865 639.371 334.578C639.386 337.829 640.849 341.081 642.841 342.285C645.821 344.088 645.623 344.3 641.376 343.858C636.357 343.337 633.112 333.247 635.086 324.293C636.007 320.109 639.303 319.708 639.321 323.777ZM294.053 328.996C298.365 331.262 299.277 340.428 295.563 344.169C289.614 350.161 280.261 345.511 280.219 336.544C280.184 328.801 286.805 325.188 294.053 328.996ZM368.63 328.517C375.408 332.079 373.505 338.194 365.601 338.244C359.323 338.285 355.497 341.913 361.205 342.414C364.65 342.718 365.139 342.631 369.539 340.931C373.022 339.585 373.159 339.785 370.78 342.734C365.362 349.44 354.841 345.72 354.802 337.084C354.764 328.948 361.504 324.773 368.63 328.517ZM390.936 329.422C396.235 334.643 394.763 338.057 387.19 338.106C380.911 338.146 377.085 341.774 382.793 342.275C386.239 342.58 386.727 342.492 391.127 340.792C394.611 339.446 394.747 339.647 392.368 342.595C386.601 349.734 376.429 345.489 376.385 335.926C376.347 327.591 385.104 323.677 390.936 329.422ZM453.021 327.975C457.333 330.241 458.245 339.407 454.531 343.148C448.582 349.14 439.229 344.49 439.187 335.523C439.152 327.781 445.773 324.168 453.021 327.975ZM468.095 330.009C465.881 331.259 464.696 334.304 464.716 338.683C464.733 342.392 463.864 345.434 462.784 345.441C458.237 345.471 460.511 328.167 465.155 327.398C470.991 326.43 472.325 327.616 468.095 330.009ZM515.934 329.253C522.299 334.329 519.418 343.785 511.201 344.782C500.527 346.079 495.723 334.767 504.36 328.666C509.857 324.781 510.356 324.805 515.934 329.253ZM550.37 330.846C548.585 332.83 547.138 336.805 547.151 339.677C547.164 342.549 546.292 344.905 545.212 344.912C540.665 344.941 542.939 327.638 547.583 326.869C553.619 325.868 554.154 326.631 550.37 330.846ZM607.501 328.004C614.713 332.973 613.077 336.655 603.633 336.716C595.919 336.765 595.582 336.986 598.644 340.001C601.376 342.696 602.437 342.804 605.002 340.661C608.357 337.853 611.131 339.051 609.067 342.416C606.844 346.041 596.562 344.924 594.328 340.815C588.987 330.991 598.464 321.774 607.501 328.004ZM627.689 326.853C634.467 330.415 632.564 336.53 624.66 336.581C618.382 336.621 614.556 340.249 620.264 340.75C623.709 341.055 624.198 340.967 628.598 339.267C632.081 337.921 632.218 338.122 629.839 341.07C624.421 347.776 613.9 344.056 613.861 335.42C613.823 327.285 620.563 323.11 627.689 326.853ZM266.631 335.343L269.254 341.567L271.78 335.31C273.172 331.869 275.127 329.049 276.128 329.042C277.129 329.036 275.749 334.545 273.062 341.283C267.41 355.459 263.55 360.631 265.429 351.509C266.18 347.867 265.473 342.759 263.612 338.385C260.083 330.082 259.949 329.146 262.284 329.131C263.232 329.125 265.188 331.92 266.631 335.343ZM305.729 335.487C305.761 342.498 309.599 345.745 313.369 341.947C314.575 340.733 315.55 337.275 315.536 334.264C315.522 331.253 316.394 328.784 317.474 328.777C318.553 328.77 319.454 332.581 319.475 337.246C319.516 346.045 307.907 350.913 303.432 343.976C301.194 340.506 301.428 328.88 303.736 328.865C304.815 328.858 305.712 331.838 305.729 335.487ZM486.866 333.928L489.45 340.153L492.016 333.895C494.184 328.606 498.019 325.258 498.034 328.638C498.045 330.926 486.537 355.065 485.432 355.072C484.777 355.076 484.787 352.104 485.453 348.465C486.251 344.112 485.592 339.806 483.523 335.866C479.846 328.87 479.68 327.735 482.323 327.718C483.401 327.711 485.443 330.506 486.866 333.928ZM525.531 332.916C525.545 335.927 526.552 339.371 527.768 340.57C531.573 344.319 535.381 341.024 535.349 334.012C535.332 330.364 536.202 327.372 537.281 327.365C538.361 327.359 539.262 331.312 539.284 336.151C539.327 345.433 530.581 349.18 524.006 342.702C521.151 339.889 520.774 327.471 523.543 327.454C524.623 327.447 525.517 329.905 525.531 332.916ZM220.766 335.264C220.031 338.117 220.725 339.175 223.315 339.158C225.906 339.141 226.59 338.075 225.829 335.231C225.254 333.084 224.108 331.332 223.279 331.337C222.451 331.342 221.321 333.109 220.766 335.264ZM284.271 334.602C282.685 337.59 282.907 339.205 285.209 341.474C289.545 345.746 294.326 343.193 293.575 337.008C292.812 330.717 287.116 329.246 284.271 334.602ZM360.078 331.694C357.331 334.461 358.839 336.332 363.793 336.301C366.976 336.28 368.556 335.361 368.034 333.829C367.077 331.008 362.088 329.669 360.078 331.694ZM381.666 331.556C378.919 334.323 380.427 336.194 385.381 336.162C388.564 336.142 390.144 335.222 389.623 333.691C388.666 330.869 383.676 329.531 381.666 331.556ZM401.225 331.499C398.916 333.825 399.866 339.43 403.007 341.997C407.266 345.477 412.682 340.097 410.792 334.263C409.518 330.325 403.978 328.724 401.225 331.499ZM443.239 333.581C441.653 336.569 441.875 338.185 444.177 340.454C448.513 344.725 453.294 342.172 452.543 335.987C451.78 329.696 446.084 328.225 443.239 333.581ZM505.242 330.831C502.932 333.157 503.882 338.762 507.023 341.329C511.282 344.809 516.698 339.429 514.808 333.595C513.534 329.657 507.994 328.056 505.242 330.831ZM598.143 331.863C598.152 333.677 600.003 334.784 603.002 334.765C606.502 334.742 607.528 333.922 606.704 331.808C606.074 330.199 603.888 328.893 601.845 328.906C599.802 328.919 598.136 330.25 598.143 331.863ZM619.137 330.031C616.39 332.798 617.898 334.669 622.852 334.637C626.035 334.617 627.615 333.697 627.093 332.166C626.136 329.345 621.147 328.006 619.137 330.031ZM651.182 342.276C651.187 343.352 650.308 344.237 649.228 344.244C648.149 344.251 647.262 343.377 647.257 342.301C647.252 341.226 648.131 340.341 649.21 340.334C650.29 340.327 651.177 341.201 651.182 342.276Z" fill="#6105E3"/>
</svg>
