<svg width="225" height="226" viewBox="0 0 225 226" fill="none" xmlns="http://www.w3.org/2000/svg">
<path fill-rule="evenodd" clip-rule="evenodd" d="M85.5 4.07998C44.191 14.852 12.438 47.199 3.12199 88C-9.33001 142.539 19.437 197.112 71.604 217.913C86.912 224.018 94.808 225.405 114 225.361C129.536 225.326 131.142 225.137 141.5 222.129C182.217 210.303 210.45 181.876 221.741 141.336C225.521 127.763 225.778 99.384 222.237 86.388C213.28 53.502 193.795 29.05 163.847 13.112C141.476 1.20598 110.304 -2.38802 85.5 4.07998ZM125.572 44.657C135.154 47.879 145.024 55.821 149.697 64.069C158.91 80.331 156.475 102.081 142.266 130.444C133.067 148.806 116.108 174 112.947 174C109.443 174 93.151 150.27 83.537 131.161C63.967 92.264 66.1 65.198 89.982 49.393C99.33 43.207 115.042 41.116 125.572 44.657ZM102.846 70.95C92.205 78.064 92.422 94.06 103.246 100.404C119.273 109.797 136.819 93.32 128.381 76.802C123.991 68.209 111.298 65.3 102.846 70.95ZM150.418 178.316C151.408 179.04 152.05 180.502 151.845 181.566C151.485 183.438 150.24 183.5 113.095 183.5C77.147 183.5 74.648 183.386 73.609 181.691C72.721 180.243 72.887 179.596 74.441 178.441C77.18 176.408 147.648 176.291 150.418 178.316Z" fill="black"/>
</svg>
